<svg width="32" height="32" viewBox="0 0 32 32" fill="none" xmlns="http://www.w3.org/2000/svg">
<g id="Group">
<path id="Vector" d="M-20.6165 23.2403C-20.3374 23.4636 -20.0432 23.6868 -19.7083 23.8949L-18.8102 24.453C-13.0464 22.4691 -7.95239 20.9267 -2.58942 19.0748C-9.17517 21.7284 -15.4565 24.2044 -19.9671 25.8889L-16.0349 28.3243C-14.5534 27.614 -14.3859 27.5531 -14.2084 27.4922C-14.3504 27.5734 -14.4925 27.6495 -14.6193 27.7256L-13.5132 28.4105C-9.3984 26.1882 2.06831 21.8248 16.219 16.7358C13.9105 17.6643 11.3076 18.7196 8.36991 19.9119C0.348282 23.1744 -9.2462 27.0711 -14.1272 28.786L-10.1848 31.2265C-7.26742 30.0545 -4.93857 29.1767 -2.52346 28.2685C-2.51838 28.3547 -2.4981 28.4308 -2.47273 28.4867C-2.40677 28.6642 -2.26978 28.8063 -2.08712 28.8875C-1.92476 28.9585 -1.66598 28.9687 -1.2753 28.9078C-3.64475 29.7551 -6.0751 30.6176 -9.3426 31.7339L-8.01836 32.5558C-3.48241 30.9931 0.0337276 29.7399 3.31646 28.5577C-0.859255 30.227 -4.6849 31.7237 -6.9478 32.4848L-2.58434 35.1891C2.17486 33.5046 6.44698 31.9825 10.2371 30.6176C5.90409 32.3021 1.67763 33.9308 -5.0857 36.5793L-3.14247 37.7818C1.4848 36.006 3.26064 35.4022 5.02631 34.7984C10.4147 32.9567 15.7168 31.1453 20.9174 29.3644C19.3597 29.9885 17.6092 30.6988 15.6356 31.5005C10.3335 33.6568 4.04706 36.209 -0.0626907 37.7311L3.02725 39.6439C10.6379 36.8127 18.0862 34.1795 25.9201 31.4345C25.9962 31.465 26.0977 31.4802 26.3412 31.4345C19.0807 34.1997 11.6374 37.0309 4.67114 39.6744L8.51707 42.059C9.88191 41.5466 11.2518 41.0341 12.6217 40.5166C11.0692 41.2168 9.85147 41.8256 8.1619 42.678L10.4502 44.0987C13.1545 43.0535 16.0871 41.8815 20.7195 39.9991C25.6055 38.0152 31.6332 35.5646 32.8458 35.3413C32.9371 35.3769 33.0437 35.387 33.1807 35.387L33.1705 34.1338C32.5008 34.0069 30.6133 34.6716 20.2628 38.8778C17.1171 40.1564 13.4944 41.6278 10.988 42.5766C14.9151 40.6485 23.0382 37.5028 34.373 33.4742L34.3527 31.0388C30.8061 32.2007 28.4215 33.0429 25.9911 33.9004C28.4265 32.9871 30.8112 32.0941 33.4496 31.0844L33.3887 23.7782C26.7978 26.0664 20.4861 28.2228 14.1895 30.3792C18.5124 28.6896 23.2361 26.8377 28.3657 24.8183C29.9132 24.2094 31.486 23.5904 34.9818 22.3575L34.9717 21.0535C32.6073 21.8451 32.1558 22.0226 31.689 22.2053C32.3029 21.8857 32.7545 21.6066 33.064 21.3681L33.0284 17.2888C32.7748 17.2381 32.3333 17.2888 31.5824 17.4917C32.1354 17.2127 32.6073 16.959 34.0686 16.4618L33.9722 5.13707C32.7037 5.47701 32.4805 5.5582 32.2572 5.63431C30.7402 5.85248 27.2038 7.11078 20.1918 9.87599C13.5097 12.215 6.56367 14.6251 -0.514233 17.0706C7.62917 13.9401 16.3408 10.5762 24.9003 7.26807C27.5488 6.24316 30.2277 5.20811 34.2461 3.65045L34.236 2.35156C30.0907 3.95995 27.2697 5.05082 24.4588 6.13153C8.61854 12.2505 -7.85598 18.4253 -20.6216 23.2353L-20.6165 23.2403ZM-0.0423756 27.3501C-0.0423756 27.3501 -0.017004 27.3349 -0.00685501 27.3298C2.11398 26.5332 4.29062 25.7062 6.51293 24.869C3.8289 25.9447 1.46961 26.8529 -0.0423756 27.3501ZM27.0871 29.542C27.016 29.5826 26.945 29.6181 26.879 29.6536C26.5695 29.8211 26.3158 29.9631 26.1078 30.09C24.9155 30.506 23.7434 30.917 22.5815 31.3229C24.1646 30.6887 25.7019 30.0747 27.0871 29.5369V29.542ZM21.3791 25.2141C23.505 24.3617 25.5345 23.56 27.2849 22.8953C25.6258 23.5752 23.6267 24.3617 21.3791 25.2141ZM32.3891 15.7717C29.076 17.6389 20.0092 21.1753 8.35979 25.4322C10.577 24.5342 13.2407 23.4332 16.4271 22.114C22.2365 19.7039 29.1724 16.8322 32.3891 15.7717ZM26.4021 15.3506C25.1641 15.8428 23.7688 16.3857 22.2619 16.959C23.7434 16.3755 25.1387 15.8326 26.4021 15.3506ZM22.2162 13.0217C21.6987 13.2501 21.2066 13.4682 20.7753 13.6661C20.2172 13.9198 19.7656 14.1227 19.4104 14.3003C18.076 14.7773 16.7771 15.2441 15.5087 15.7007C17.8325 14.7671 20.1157 13.8538 22.2213 13.0268L22.2162 13.0217Z" fill="#FF6662"/>
<path id="Vector_2" d="M-7.82043 9.36477C-7.82043 9.48654 -7.80015 9.59817 -7.76971 9.67935C-7.70882 9.85186 -7.57689 9.98885 -7.40438 10.065C-6.74479 10.3592 -4.35504 9.58294 5.15828 5.77253C5.13291 5.8943 5.16334 6.01607 5.21408 6.15306C5.23438 6.20887 5.26989 6.26469 5.3054 6.31543C2.99177 7.10694 0.678141 7.90352 -1.62535 8.69503C-6.27292 10.2882 -10.814 11.8509 -15.2434 13.3731L-21.0173 16.4732C-24.3305 18.2642 -25.0002 21.1157 -22.9809 23.4192C11.2671 11.4602 29.8624 4.55482 32.8915 2.01792L32.8357 -4.19747C32.8357 -4.25835 32.8357 -4.31924 32.8306 -4.38012C31.755 -3.96915 30.6945 -3.56832 29.6595 -3.17256C31.4708 -3.92348 33.8251 -5.0042 34.2563 -5.34414C34.099 -7.78463 32.9574 -9.39811 31.2679 -9.92578C28.2439 -8.85014 23.7486 -7.12505 20.7652 -6.0697L-7.83567 9.36477H-7.82043ZM-18.9929 20.2633C-18.2014 19.969 -17.3845 19.6595 -16.5372 19.3449C-17.4099 19.6747 -18.2318 19.9842 -18.9929 20.2633ZM-5.66408 8.58341C-5.53724 8.50223 -5.39516 8.41597 -5.24295 8.31957C-1.37166 6.86847 2.58587 5.38184 6.61445 3.86985C1.5559 5.90952 -3.30985 7.82741 -5.66408 8.57833V8.58341ZM30.6438 2.05852C26.8283 4.03222 16.7721 7.83249 4.66611 12.1858C14.4179 8.22317 26.0165 3.51469 30.6438 2.05852Z" fill="#FF6662"/>
</g>
</svg>
