<svg width="31" height="32" viewBox="0 0 31 32" fill="none" xmlns="http://www.w3.org/2000/svg">
<g id="Group">
<path id="Vector" d="M30.9843 11.5252L28.431 10.8393L29.1704 8.0744L25.2668 7.0295L26.1349 3.793L22.1991 2.73739L21.3311 5.97389L14.9814 4.27258L15.8494 1.03608L11.911 -0.0195312L11.0456 3.21697L10.858 3.91893L10.3035 5.98193L7.80643 5.3148L8.60483 2.33818L5.54518 1.51834L4.74677 4.49496L1.77285 3.69655L0.961045 6.73211L3.93497 7.52783L1.49957 16.6158L3.89478 17.2561L3.13657 20.088L0.741356 19.4477L-0.0249023 22.3064L2.37031 22.9494L2.83649 23.0727L11.5788 25.417L10.9974 27.5818L10.8822 28.0158L10.1293 30.8183L15.2359 32.1874L15.986 29.3822L19.2895 30.2691L18.526 33.1144L21.3873 33.8807L22.1536 31.0219L19.3056 30.2583L20.1174 27.2255L23.4744 28.123L24.8783 22.8798L27.7371 23.646L30.9843 11.5252Z" fill="#F78D1E"/>
<g id="Group_2">
<path id="Vector_2" d="M5.38083 6.57149L2.88379 15.8906L9.08703 17.5528L11.5841 8.23365L5.38083 6.57149Z" fill="#FEBC11"/>
<path id="Vector_3" d="M10.504 19.7879L9.44238 23.75L13.4045 24.8116L14.4661 20.8495L10.504 19.7879Z" fill="#FEBC11"/>
<path id="Vector_4" d="M28.174 17.016L25.4171 16.2765L27.2657 9.3695L21.3286 7.77804L21.0955 7.71642L17.4169 6.73047L16.3667 10.6421L20.0479 11.6281L16.5301 24.7616L22.7003 26.4147L24.3534 20.2391L27.113 20.9786L28.174 17.016Z" fill="#FEBC11"/>
</g>
</g>
</svg>
