<svg width="32" height="32" viewBox="0 0 32 32" fill="none" xmlns="http://www.w3.org/2000/svg">
<g id="Group">
<path id="Vector" d="M31.4778 23.2403C31.1988 23.4636 30.9045 23.6868 30.5696 23.8949L29.6716 24.453C23.9078 22.4691 18.8137 20.9267 13.4507 19.0748C20.0365 21.7284 26.3178 24.2044 30.8284 25.8889L26.8962 28.3243C25.4147 27.614 25.2473 27.5531 25.0697 27.4922C25.2118 27.5734 25.3538 27.6495 25.4807 27.7256L24.3746 28.4105C20.2597 26.1882 8.79302 21.8248 -5.35772 16.7358C-3.04916 17.6643 -0.446295 18.7196 2.49142 19.9119C10.513 23.1744 20.1075 27.0711 24.9885 28.786L21.0462 31.2265C18.1287 30.0545 15.7999 29.1767 13.3848 28.2685C13.3797 28.3547 13.3594 28.4308 13.3341 28.4867C13.2681 28.6642 13.1311 28.8063 12.9484 28.8875C12.7861 28.9585 12.5273 28.9687 12.1366 28.9078C14.5061 29.7551 16.9364 30.6176 20.2039 31.7339L18.8797 32.5558C14.3437 30.9931 10.8276 29.7399 7.54487 28.5577C11.7206 30.227 15.5462 31.7237 17.8091 32.4848L13.4457 35.1891C8.68647 33.5046 4.41435 31.9825 0.624243 30.6176C4.95724 32.3021 9.1837 33.9308 15.947 36.5793L14.0038 37.7818C9.37652 36.006 7.60069 35.4022 5.83501 34.7984C0.446671 32.9567 -4.85542 31.1453 -10.056 29.3644C-8.49839 29.9885 -6.74792 30.6988 -4.77422 31.5005C0.527864 33.6568 6.81427 36.209 10.924 37.7311L7.83408 39.6439C0.223427 36.8127 -7.22486 34.1795 -15.0588 31.4345C-15.1349 31.465 -15.2364 31.4802 -15.4799 31.4345C-8.21933 34.1997 -0.7761 37.0309 6.19018 39.6744L2.34426 42.059C0.979414 41.5466 -0.390486 41.0341 -1.7604 40.5166C-0.20783 41.2168 1.00986 41.8256 2.69943 42.678L0.411154 44.0987C-2.29317 43.0535 -5.2258 41.8815 -9.85815 39.9991C-14.7442 38.0152 -20.7718 35.5646 -21.9845 35.3413C-22.0758 35.3769 -22.1823 35.387 -22.3193 35.387L-22.3092 34.1338C-21.6394 34.0069 -19.752 34.6716 -9.4015 38.8778C-6.25576 40.1564 -2.63311 41.6278 -0.126665 42.5766C-4.05376 40.6485 -12.1768 37.5028 -23.5117 33.4742L-23.4914 31.0388C-19.9448 32.2007 -17.5601 33.0429 -15.1298 33.9004C-17.5652 32.9871 -19.9499 32.0941 -22.5882 31.0844L-22.5273 23.7782C-15.9365 26.0664 -9.62476 28.2228 -3.32821 30.3792C-7.65106 28.6896 -12.3747 26.8377 -17.5043 24.8183C-19.0518 24.2094 -20.6247 23.5904 -24.1205 22.3575L-24.1104 21.0535C-21.746 21.8451 -21.2944 22.0226 -20.8276 22.2053C-21.4416 21.8857 -21.8931 21.6066 -22.2026 21.3681L-22.1671 17.2888C-21.9134 17.2381 -21.472 17.2888 -20.7211 17.4917C-21.2741 17.2127 -21.746 16.959 -23.2072 16.4618L-23.1108 5.13707C-21.8424 5.47701 -21.6191 5.5582 -21.3959 5.63431C-19.8788 5.85248 -16.3424 7.11078 -9.33049 9.87599C-2.64833 12.215 4.29765 14.6251 11.3756 17.0706C3.23216 13.9401 -5.47948 10.5762 -14.0389 7.26807C-16.6874 6.24316 -19.3664 5.20811 -23.3848 3.65045L-23.3747 2.35156C-19.2294 3.95995 -16.4084 5.05082 -13.5975 6.13153C2.24279 12.2505 18.7173 18.4253 31.4829 23.2353L31.4778 23.2403ZM10.9037 27.3501C10.9037 27.3501 10.8783 27.3349 10.8682 27.3298C8.74735 26.5332 6.57071 25.7062 4.3484 24.869C7.03243 25.9447 9.39172 26.8529 10.9037 27.3501ZM-16.2257 29.542C-16.1547 29.5826 -16.0837 29.6181 -16.0177 29.6536C-15.7082 29.8211 -15.4545 29.9631 -15.2465 30.09C-14.0542 30.506 -12.8821 30.917 -11.7202 31.3229C-13.3032 30.6887 -14.8406 30.0747 -16.2257 29.5369V29.542ZM-10.5177 25.2141C-12.6436 24.3617 -14.6732 23.56 -16.4236 22.8953C-14.7645 23.5752 -12.7654 24.3617 -10.5177 25.2141ZM-21.5278 15.7717C-18.2146 17.6389 -9.14783 21.1753 2.50154 25.4322C0.284307 24.5342 -2.3794 23.4332 -5.56573 22.114C-11.3752 19.7039 -18.3111 16.8322 -21.5278 15.7717ZM-15.5408 15.3506C-14.3028 15.8428 -12.9075 16.3857 -11.4006 16.959C-12.8821 16.3755 -14.2774 15.8326 -15.5408 15.3506ZM-11.3549 13.0217C-10.8374 13.2501 -10.3452 13.4682 -9.91396 13.6661C-9.35584 13.9198 -8.90427 14.1227 -8.54911 14.3003C-7.21471 14.7773 -5.91582 15.2441 -4.64738 15.7007C-6.97116 14.7671 -9.25438 13.8538 -11.36 13.0268L-11.3549 13.0217Z" fill="#529540"/>
<path id="Vector_2" d="M18.6818 9.36477C18.6818 9.48654 18.6615 9.59817 18.631 9.67935C18.5702 9.85186 18.4382 9.98885 18.2657 10.065C17.6061 10.3592 15.2164 9.58294 5.70305 5.77253C5.72842 5.8943 5.69798 6.01607 5.64725 6.15306C5.62695 6.20887 5.59144 6.26469 5.55592 6.31543C7.86956 7.10694 10.1832 7.90352 12.4867 8.69503C17.1343 10.2882 21.6753 11.8509 26.1047 13.3731L31.8786 16.4732C35.1918 18.2642 35.8615 21.1157 33.8422 23.4192C-0.405758 11.4602 -19.0011 4.55482 -22.0302 2.01792L-21.9744 -4.19747C-21.9744 -4.25835 -21.9743 -4.31924 -21.9693 -4.38012C-20.8936 -3.96915 -19.8332 -3.56832 -18.7982 -3.17256C-20.6095 -3.92348 -22.9637 -5.0042 -23.395 -5.34414C-23.2377 -7.78463 -22.0961 -9.39811 -20.4065 -9.92578C-17.3826 -8.85014 -12.8872 -7.12505 -9.90387 -6.0697L18.697 9.36477H18.6818ZM29.8542 20.2633C29.0627 19.969 28.2458 19.6595 27.3985 19.3449C28.2712 19.6747 29.0931 19.9842 29.8542 20.2633ZM16.5254 8.58341C16.3986 8.50223 16.2565 8.41597 16.1043 8.31957C12.233 6.86847 8.27546 5.38184 4.24688 3.86985C9.30543 5.90952 14.1712 7.82741 16.5254 8.57833V8.58341ZM-19.7825 2.05852C-15.967 4.03222 -5.91079 7.83249 6.19522 12.1858C-3.55656 8.22317 -15.1552 3.51469 -19.7825 2.05852Z" fill="#529540"/>
</g>
</svg>
