<svg width="32" height="32" viewBox="0 0 32 32" fill="none" xmlns="http://www.w3.org/2000/svg">
<g id="Group">
<path id="Vector" d="M19.3325 0.371094L22.2984 3.33699L23.6487 1.98666C22.2797 1.2338 20.8248 0.695279 19.3325 0.371094Z" fill="#8B127C"/>
<path id="Vector_2" d="M29.9983 8.3347C29.283 7.03527 28.3774 5.81087 27.2762 4.70703L25.4731 6.51015L28.648 9.68502L29.9983 8.3347Z" fill="#8B127C"/>
<path id="Vector_3" d="M27.3165 27.332C28.415 26.2335 29.3152 25.0118 30.0252 23.7151L28.6695 22.3594L25.5054 25.5235L27.3138 27.3347L27.3165 27.332Z" fill="#8B127C"/>
<path id="Vector_4" d="M9.63743 9.6526L6.47363 12.8164L9.64879 15.9916L12.8126 12.8278L9.63743 9.6526Z" fill="#8B127C"/>
<path id="Vector_5" d="M9.64768 15.9885L6.48389 19.1523L9.65905 22.3275L12.8228 19.1637L9.64768 15.9885Z" fill="#8B127C"/>
<path id="Vector_6" d="M12.9209 0.284242L15.9618 3.32516L18.9893 0.297638C16.9853 -0.0908493 14.9249 -0.0935285 12.9209 0.286921V0.284242Z" fill="#8B127C"/>
<path id="Vector_7" d="M23.6995 30.0432L22.3438 28.6875L19.3887 31.6427C20.8783 31.3239 22.3331 30.7907 23.6995 30.0432Z" fill="#8B127C"/>
<path id="Vector_8" d="M3.2946 9.63672L0.342107 12.5892C0.317995 12.7044 0.291203 12.8196 0.26709 12.9348L3.30799 15.9758L6.47214 12.8116L3.29728 9.63672H3.2946Z" fill="#8B127C"/>
<path id="Vector_9" d="M8.26465 1.95496L9.62033 3.31065L12.5728 0.355469C11.0832 0.674296 9.63105 1.20478 8.26465 1.95496Z" fill="#8B127C"/>
<path id="Vector_10" d="M22.3074 9.67213L19.1436 12.8359L22.3187 16.0111L25.4825 12.8473L22.3074 9.67213Z" fill="#8B127C"/>
<path id="Vector_11" d="M19.0455 31.7167L16.0046 28.6758L12.9771 31.7033C14.9811 32.0918 17.0441 32.0971 19.0455 31.714V31.7167Z" fill="#8B127C"/>
<path id="Vector_12" d="M4.64764 4.66406C3.54917 5.76254 2.64896 6.98427 1.93896 8.28101L3.29464 9.6367L6.45879 6.47254L4.65032 4.66406H4.64764Z" fill="#8B127C"/>
<path id="Vector_13" d="M1.96826 23.6667C2.68361 24.9662 3.58918 26.1906 4.69034 27.2944L6.49345 25.4913L3.31859 22.3164L1.96826 23.6667Z" fill="#8B127C"/>
<path id="Vector_14" d="M12.6341 31.63L9.66819 28.6641L8.31787 30.0144C9.68695 30.7673 11.1418 31.3058 12.6341 31.63Z" fill="#8B127C"/>
<path id="Vector_15" d="M22.2991 3.33619L19.1353 6.5L22.3104 9.67517L25.4742 6.51136L22.2991 3.33619Z" fill="#8B127C"/>
<path id="Vector_16" d="M9.65843 22.3284L6.49463 25.4922L9.66979 28.6674L12.8336 25.5036L9.65843 22.3284Z" fill="#8B127C"/>
<path id="Vector_17" d="M15.9533 3.32057L12.7896 6.48438L15.9647 9.65955L19.1285 6.49575L15.9533 3.32057Z" fill="#8B127C"/>
<path id="Vector_18" d="M9.6218 3.30885L6.45801 6.47266L9.63317 9.64783L12.797 6.48402L9.6218 3.30885Z" fill="#8B127C"/>
<path id="Vector_19" d="M28.6585 16.0226L31.686 12.9951C31.6646 12.8799 31.6351 12.7647 31.611 12.6495L28.6451 9.68359L25.481 12.8478L28.6558 16.0226H28.6585Z" fill="#8B127C"/>
<path id="Vector_20" d="M15.9763 9.66432L12.8125 12.8281L15.9877 16.0033L19.1515 12.8395L15.9763 9.66432Z" fill="#8B127C"/>
<path id="Vector_21" d="M3.30534 15.9766L0.277832 19.0041C0.299266 19.1193 0.328737 19.2345 0.35285 19.3497L3.31874 22.3156L6.48288 19.1514L3.30802 15.9766H3.30534Z" fill="#8B127C"/>
<path id="Vector_22" d="M15.9836 16.0003L12.8198 19.1641L15.995 22.3392L19.1588 19.1754L15.9836 16.0003Z" fill="#8B127C"/>
<path id="Vector_23" d="M22.3298 22.344L19.166 25.5078L22.3412 28.683L25.505 25.5192L22.3298 22.344Z" fill="#8B127C"/>
<path id="Vector_24" d="M15.9939 22.3323L12.8301 25.4961L16.0052 28.6713L19.169 25.5075L15.9939 22.3323Z" fill="#8B127C"/>
<path id="Vector_25" d="M22.3225 16.012L19.1587 19.1758L22.3339 22.351L25.4976 19.1872L22.3225 16.012Z" fill="#8B127C"/>
<path id="Vector_26" d="M28.6722 22.3625L31.6273 19.4073C31.6515 19.2921 31.6782 19.1796 31.6997 19.0644L28.6588 16.0234L25.4946 19.1876L28.6695 22.3625H28.6722Z" fill="#8B127C"/>
</g>
</svg>
