<svg width="25" height="25" viewBox="0 0 25 25" fill="none" xmlns="http://www.w3.org/2000/svg">
<path id="Vector" opacity="0.5" fill-rule="evenodd" clip-rule="evenodd" d="M16.1336 0.619685C11.7189 0.277813 7.28439 0.277813 2.8697 0.619685C2.25107 0.665812 1.66949 0.932219 1.23052 1.37055C0.791546 1.80887 0.524285 2.39007 0.477249 3.00863C0.135839 7.4075 0.135839 11.8262 0.477249 16.2251C0.524285 16.8436 0.791546 17.4248 1.23052 17.8632C1.66949 18.3015 2.25107 18.5679 2.8697 18.614C2.98385 18.622 3.0984 18.6058 3.20592 18.5667C3.31344 18.5275 3.41153 18.4662 3.49384 18.3867C3.57614 18.3072 3.64083 18.2113 3.68371 18.1052C3.72658 17.9991 3.74669 17.8852 3.74272 17.7709C3.64709 14.6249 3.72098 11.4761 3.96405 8.33807C4.04989 7.19565 4.54248 6.12186 5.35241 5.31161C6.16234 4.50136 7.23593 4.00834 8.37831 3.92204C11.5322 3.67881 14.6968 3.60551 17.8585 3.70247C17.9492 3.70566 18.0395 3.68974 18.1235 3.65576C18.2076 3.62177 18.2836 3.57047 18.3465 3.5052C18.4095 3.43992 18.458 3.36214 18.4889 3.27689C18.5199 3.19164 18.5325 3.10084 18.526 3.01038C18.4794 2.39151 18.2123 1.8099 17.7733 1.37121C17.3343 0.932522 16.7525 0.665865 16.1336 0.619685ZM8.54519 6.11249C12.9599 5.77062 17.3944 5.77062 21.8091 6.11249C22.4277 6.15862 23.0093 6.42502 23.4483 6.86335C23.8872 7.30168 24.1545 7.88287 24.2015 8.50143C24.5429 12.9003 24.5429 17.319 24.2015 21.7179C24.1545 22.3364 23.8872 22.9176 23.4483 23.356C23.0093 23.7943 22.4277 24.0607 21.8091 24.1068C17.3944 24.4488 12.9599 24.4488 8.54519 24.1068C7.92656 24.0607 7.34498 23.7943 6.90601 23.356C6.46703 22.9176 6.19977 22.3364 6.15274 21.7179C5.81142 17.3196 5.81142 12.9015 6.15274 8.50319C6.19897 7.884 6.46588 7.30197 6.90492 6.86292C7.34397 6.42387 7.926 6.15872 8.54519 6.11249Z" fill="white"/>
</svg>
